PathFileType	4	(X/Y/Z)	Trial07_KneeR_markers_cropped.trc
DataRate	CameraRate	NumFrames	NumMarkers	Units	OrigDataRate	OrigDataStartFrame	OrigNumFrames
200	200	7	27	m	200	50	101
Frame#	Time	R_ASIS			L_ASIS			Sacral			L_Thigh_Superior			L_Thigh_Posterior			L_Thigh_Inferior			L_Thigh_Lateral			L_Shank_Posterior			L_Shank_Superior			L_Shank_Lateral			L_Shank_Inferior			L_Midfoot_Superior			L_Heel			L_Midfoot_Lateral			L_Toe			R_Thigh_Posterior			R_Thigh_Superior			R_Thigh_Lateral			R_Thigh_Inferior			R_Shank_Posterior			R_Shank_Superior			R_Shank_Lateral			R_Shank_Inferior			R_Midfoot_Superior			R_Heel			R_Midfoot_Lateral			R_Toe
		X1	Y1	Z1	X2	Y2	Z2	X3	Y3	Z3	X4	Y4	Z4	X5	Y5	Z5	X6	Y6	Z6	X7	Y7	Z7	X8	Y8	Z8	X9	Y9	Z9	X10	Y10	Z10	X11	Y11	Z11	X12	Y12	Z12	X13	Y13	Z13	X14	Y14	Z14	X15	Y15	Z15	X16	Y16	Z16	X17	Y17	Z17	X18	Y18	Z18	X19	Y19	Z19	X20	Y20	Z20	X21	Y21	Z21	X22	Y22	Z22	X23	Y23	Z23	X24	Y24	Z24	X25	Y25	Z25	X26	Y26	Z26	X27	Y27	Z27

51	   0.250	    1.05734746690694	    0.99501916248530	    0.55851484761889	    1.13843092771272	    0.97050785074537	    0.31784889920591	    0.91062286544604	    1.03974656071555	    0.38516508588083	    1.11904609577113	    0.72726102535168	    0.26121899215211	    1.04414182487899	    0.72016607842461	    0.25595641332297	    1.12192554235595	    0.63476769105871	    0.28331642076591	    1.04247342568803	    0.63245315134740	    0.27533842063453	    0.99228457452097	    0.36595873496566	    0.30519330700529	    1.06400080858325	    0.34588858185685	    0.31906613598196	    0.98563816363345	    0.29491908941619	    0.30942330172107	    1.05045298213790	    0.28936824073169	    0.32166689637456	    1.08917041155065	    0.08794527258522	    0.42968689674014	    0.91669878997232	    0.03745985396384	    0.44809251265148	    1.01804925984200	    0.02421763397745	    0.38138470939330	    1.21446428090977	    0.03511514348865	    0.43211293695530	    0.99244912504129	    0.79127782778328	    0.62558072236264	    1.06650169019116	    0.80621668175808	    0.62676781437492	    1.01674239443783	    0.69601334122283	    0.64126011923512	    1.08549550878544	    0.71435125111530	    0.64488293872670	    0.93989223450789	    0.55655357112575	    0.62962781350131	    0.94460775546446	    0.48000500346428	    0.62983897250784	    0.87300129533399	    0.54304767671920	    0.60833771996741	    0.88831105719047	    0.47235086702513	    0.60999152836995	    0.71952380951784	    0.39618245606549	    0.51985338549264	    0.64950955821337	    0.54699128984912	    0.45688944559697	    0.62431783100864	    0.45616764311710	    0.53723481712488	    0.70390750229715	    0.27048945573388	    0.54231897384695
52	   0.255	    1.05721743689061	    0.99508303392822	    0.55849868197184	    1.13806864570310	    0.97050392351170	    0.31777205391469	    0.91035729063374	    1.03985448644176	    0.38534028898016	    1.11853382682055	    0.72730574010729	    0.26118477470695	    1.04361287220704	    0.72023330282778	    0.25605554693855	    1.12144272978967	    0.63479726967505	    0.28323200916505	    1.04197814599378	    0.63249356379150	    0.27537607184642	    0.99197444252461	    0.36594909311272	    0.30524710949648	    1.06374165650244	    0.34593724254386	    0.31907165899940	    0.98537479362057	    0.29491127194514	    0.30949110072926	    1.05019547905113	    0.28939741442012	    0.32168111410496	    1.08916370125852	    0.08796183704429	    0.42968065672220	    0.91669625422817	    0.03745075524250	    0.44810516254357	    1.01804248295741	    0.02422006328359	    0.38138878907321	    1.21445952909537	    0.03512832768462	    0.43210383641946	    0.99251677557389	    0.79139394424496	    0.62571440198467	    1.06652339776437	    0.80634672765311	    0.62677218554122	    1.01687004079192	    0.69614475713260	    0.64139475509360	    1.08563765489822	    0.71452615415421	    0.64487610792303	    0.94015951536073	    0.55669948412587	    0.62963043410702	    0.94489412880212	    0.48015671200134	    0.63003043598423	    0.87325946515667	    0.54313656487559	    0.60845514652759	    0.88856841692817	    0.47243203303938	    0.61024590284857	    0.71973906402141	    0.39594257126075	    0.52038271828176	    0.64940995300423	    0.54651622292385	    0.45728196414155	    0.62450572753154	    0.45589213996549	    0.53798182704929	    0.70439571223156	    0.27031992133830	    0.54337724602053
53	   0.260	    1.05712062102346	    0.99514244914335	    0.55843908308091	    1.13774610017243	    0.97050532905391	    0.31764705628275	    0.91011974950375	    1.03994529450623	    0.38549785477571	    1.11805932013081	    0.72733713915496	    0.26113078180630	    1.04316991520924	    0.72034158078858	    0.25610166040072	    1.12099214068192	    0.63481710564359	    0.28314075923905	    1.04151982290822	    0.63252274583530	    0.27538110711636	    0.99165070807751	    0.36593340517520	    0.30528243859491	    1.06347677959364	    0.34593315281154	    0.31909879236335	    0.98510545640262	    0.29489364281061	    0.30954055819171	    1.04993198845316	    0.28941889741394	    0.32169190226942	    1.08915239340133	    0.08796766399131	    0.42967624819813	    0.91669948769633	    0.03743841245023	    0.44811381919116	    1.01804055323286	    0.02422239651966	    0.38138878834440	    1.21445085355139	    0.03514012430602	    0.43209668743508	    0.99258571597143	    0.79148032139708	    0.62581547320029	    1.06657449181067	    0.80646105470209	    0.62675021833998	    1.01699382974943	    0.69624295126085	    0.64148211613928	    1.08577240698924	    0.71466069269526	    0.64484112870376	    0.94021095512657	    0.55596126011220	    0.62985011843305	    0.94536854104130	    0.47942839293951	    0.63034895697178	    0.87335116984995	    0.54199781631280	    0.60884090812187	    0.88906001531284	    0.47137797322581	    0.61070515985725	    0.72048290628918	    0.39364648415550	    0.52133040155992	    0.64897446227450	    0.54362267094513	    0.45814959923612	    0.62481173254910	    0.45305129077189	    0.53930464302513	    0.70623825439154	    0.26799884884612	    0.54464889997511
54	   0.265	    1.05706360540690	    0.99518998721055	    0.55836834519843	    1.13746999572873	    0.97051271832027	    0.31750258503452	    0.90989143972365	    1.03999887133133	    0.38562514854082	    1.11764963919122	    0.72734851085264	    0.26106035221099	    1.04279284452887	    0.72041454989313	    0.25609422209719	    1.12058950189721	    0.63482577099863	    0.28304903563720	    1.04111149481997	    0.63254266188840	    0.27537440593565	    0.99134860350428	    0.36592613493956	    0.30526752531850	    1.06323022637100	    0.34591768514101	    0.31911310129402	    0.98486270230692	    0.29487826074295	    0.30955523261844	    1.04969426907339	    0.28943132706577	    0.32168643949906	    1.08914260294714	    0.08796831146869	    0.42967509808827	    0.91669955835643	    0.03742603184802	    0.44812427951254	    1.01803964996004	    0.02422101792883	    0.38138547396834	    1.21444227987200	    0.03515645627831	    0.43209573396453	    0.99264181301132	    0.79153586297333	    0.62589603515836	    1.06663647208848	    0.80655633868550	    0.62671298446733	    1.01710732430338	    0.69630654996100	    0.64154584570824	    1.08588344855274	    0.71475669462012	    0.64481238906890	    0.94005449185983	    0.55438608173331	    0.63022060314702	    0.94603588521195	    0.47789366205129	    0.63079499669819	    0.87327518402290	    0.53967809364496	    0.60944001078103	    0.88977305645238	    0.46921479868479	    0.61133707239647	    0.72178514819734	    0.38934588020690	    0.52252588538967	    0.64831554922856	    0.53829375016925	    0.45938592287508	    0.62550210312118	    0.44759196719543	    0.54095353219816	    0.70936781226604	    0.26357635259650	    0.54623228187237
55	   0.270	    1.05700921598327	    0.99522974465496	    0.55830907727186	    1.13722490404535	    0.97052337605038	    0.31736895587339	    0.90967641809765	    1.03999890740301	    0.38572953606766	    1.11731947689041	    0.72734565055631	    0.26099235265015	    1.04245120682919	    0.72041668475256	    0.25609018907502	    1.12026523119390	    0.63482987709507	    0.28296051291289	    1.04078078064605	    0.63255192078019	    0.27536814929209	    0.99112267697872	    0.36595101830066	    0.30519032766535	    1.06303560986993	    0.34595078014893	    0.31906009891017	    0.98469680059250	    0.29486426029014	    0.30958052784366	    1.04951349761231	    0.28942813380180	    0.32166318336527	    1.08914548789673	    0.08798879327210	    0.42967063165490	    0.91669568263438	    0.03741624572755	    0.44813731021713	    1.01803081049407	    0.02421000647233	    0.38138759686367	    1.21444013197522	    0.03517195174161	    0.43209543733996	    0.99270131323377	    0.79156611757640	    0.62596328879385	    1.06671485493868	    0.80664416448473	    0.62668033763430	    1.01723142662619	    0.69634265632556	    0.64158619107372	    1.08599638933585	    0.71483346469165	    0.64479663664014	    0.93975813052597	    0.55212281836253	    0.63061941259929	    0.94693921414987	    0.47572807858211	    0.63137016678744	    0.87312290917314	    0.53633217853969	    0.61010643854927	    0.89074805057561	    0.46612185488264	    0.61212479742129	    0.72378326338690	    0.38312407909950	    0.52406157145122	    0.64769199579205	    0.53064237022602	    0.46076945102052	    0.62690684451393	    0.43968166653704	    0.54248534568610	    0.71365006620152	    0.25729796941261	    0.54829352814914
56	   0.275	    1.05692849177926	    0.99526119063240	    0.55825992724283	    1.13699181142447	    0.97052882782031	    0.31725998940396	    0.90946456736149	    1.03994936241348	    0.38580932712561	    1.11708368902830	    0.72734744585112	    0.26094018092806	    1.04216679831243	    0.72036787012519	    0.25611668344514	    1.12005526439316	    0.63483797152775	    0.28289226551409	    1.04056715153265	    0.63254942081204	    0.27536396870422	    0.99102871408343	    0.36599355894494	    0.30508686267342	    1.06293786822053	    0.34600121893579	    0.31897839104686	    0.98464429656991	    0.29483762802739	    0.30962948055358	    1.04942349930442	    0.28940976012042	    0.32163928757005	    1.08914975026648	    0.08802169256746	    0.42966081393840	    0.91669152186978	    0.03741064788693	    0.44814632391023	    1.01801409028557	    0.02419664121076	    0.38139358443812	    1.21444026561577	    0.03518222011722	    0.43209594730056	    0.99277036985574	    0.79157118530508	    0.62600792214157	    1.06680190216416	    0.80673364816020	    0.62666978180569	    1.01738451678908	    0.69635834177133	    0.64158941798624	    1.08612956927477	    0.71490118580225	    0.64477217980611	    0.93942761870487	    0.54936159692724	    0.63092813928197	    0.94809489125175	    0.47312355753852	    0.63201972997832	    0.87300047107486	    0.53221002098221	    0.61074071651882	    0.89202528627929	    0.46234579815605	    0.61303068666106	    0.72661440909027	    0.37535366480411	    0.52597433003890	    0.64728789338359	    0.52094184713354	    0.46213810462592	    0.62888531155257	    0.42992778370099	    0.54404767098005	    0.71908671910565	    0.24956960172293	    0.55093755451717
57	   0.280	    1.05681295781841	    0.99527178342411	    0.55820563589561	    1.13677876397693	    0.97052517128409	    0.31718413819321	    0.90923548837062	    1.03987403068162	    0.38586736961515	    1.11695500071672	    0.72735811910503	    0.26091250248196	    1.04201300236453	    0.72032066239999	    0.25612825308504	    1.11997941664642	    0.63485406489219	    0.28285808002548	    1.04049273825737	    0.63252587662135	    0.27535477336643	    0.99106265327267	    0.36594651097934	    0.30510195306127	    1.06296000877946	    0.34600565917280	    0.31895696458486	    0.98469152724529	    0.29479771312254	    0.30966793292331	    1.04944711869648	    0.28938386580200	    0.32164448350107	    1.08914165672784	    0.08803317291772	    0.42966045469560	    0.91669160793908	    0.03740928163237	    0.44814626779899	    1.01800598368299	    0.02418788338471	    0.38139589628970	    1.21443942393690	    0.03518851808153	    0.43209292844739	    0.99284200254625	    0.79155774866198	    0.62603565571304	    1.06686832984863	    0.80680769850648	    0.62666671359742	    1.01757678857462	    0.69636137110115	    0.64156385276141	    1.08628664941178	    0.71497353456304	    0.64472812302019	    0.93915446439699	    0.54626135611628	    0.63105247371802	    0.94950199262442	    0.47024288163629	    0.63268953855951	    0.87299009893004	    0.52754509448046	    0.61129025664768	    0.89362125804007	    0.45809908826623	    0.61400547715487	    0.73012242617670	    0.36644073806059	    0.52815080593320	    0.64713752156055	    0.50958812543897	    0.46349710658290	    0.63127901679688	    0.41881404096813	    0.54599646975512	    0.72565092512025	    0.24079492643320	    0.55418974333274
